<?xml version="1.0"?>
<svg xmlns="http://www.w3.org/2000/svg" xmlns:xlink="http://www.w3.org/1999/xlink" version="1.1" width="320px" height="320px" viewBox="0 0 320 320"><defs><rect id="block" width="9.0000000000" height="9.0000000000" fill="#000000" fill-opacity="1"/></defs><rect x="0" y="0" width="320" height="320" fill="#ffffff" fill-opacity="1"/><use x="11.0000000000" y="11.0000000000" xlink:href="#block"/><use x="20.0000000000" y="11.0000000000" xlink:href="#block"/><use x="29.0000000000" y="11.0000000000" xlink:href="#block"/><use x="38.0000000000" y="11.0000000000" xlink:href="#block"/><use x="47.0000000000" y="11.0000000000" xlink:href="#block"/><use x="56.0000000000" y="11.0000000000" xlink:href="#block"/><use x="65.0000000000" y="11.0000000000" xlink:href="#block"/><use x="101.0000000000" y="11.0000000000" xlink:href="#block"/><use x="119.0000000000" y="11.0000000000" xlink:href="#block"/><use x="137.0000000000" y="11.0000000000" xlink:href="#block"/><use x="146.0000000000" y="11.0000000000" xlink:href="#block"/><use x="155.0000000000" y="11.0000000000" xlink:href="#block"/><use x="200.0000000000" y="11.0000000000" xlink:href="#block"/><use x="245.0000000000" y="11.0000000000" xlink:href="#block"/><use x="254.0000000000" y="11.0000000000" xlink:href="#block"/><use x="263.0000000000" y="11.0000000000" xlink:href="#block"/><use x="272.0000000000" y="11.0000000000" xlink:href="#block"/><use x="281.0000000000" y="11.0000000000" xlink:href="#block"/><use x="290.0000000000" y="11.0000000000" xlink:href="#block"/><use x="299.0000000000" y="11.0000000000" xlink:href="#block"/><use x="11.0000000000" y="20.0000000000" xlink:href="#block"/><use x="65.0000000000" y="20.0000000000" xlink:href="#block"/><use x="83.0000000000" y="20.0000000000" xlink:href="#block"/><use x="101.0000000000" y="20.0000000000" xlink:href="#block"/><use x="128.0000000000" y="20.0000000000" xlink:href="#block"/><use x="137.0000000000" y="20.0000000000" xlink:href="#block"/><use x="146.0000000000" y="20.0000000000" xlink:href="#block"/><use x="164.0000000000" y="20.0000000000" xlink:href="#block"/><use x="209.0000000000" y="20.0000000000" xlink:href="#block"/><use x="227.0000000000" y="20.0000000000" xlink:href="#block"/><use x="245.0000000000" y="20.0000000000" xlink:href="#block"/><use x="299.0000000000" y="20.0000000000" xlink:href="#block"/><use x="11.0000000000" y="29.0000000000" xlink:href="#block"/><use x="29.0000000000" y="29.0000000000" xlink:href="#block"/><use x="38.0000000000" y="29.0000000000" xlink:href="#block"/><use x="47.0000000000" y="29.0000000000" xlink:href="#block"/><use x="65.0000000000" y="29.0000000000" xlink:href="#block"/><use x="119.0000000000" y="29.0000000000" xlink:href="#block"/><use x="155.0000000000" y="29.0000000000" xlink:href="#block"/><use x="173.0000000000" y="29.0000000000" xlink:href="#block"/><use x="182.0000000000" y="29.0000000000" xlink:href="#block"/><use x="191.0000000000" y="29.0000000000" xlink:href="#block"/><use x="200.0000000000" y="29.0000000000" xlink:href="#block"/><use x="218.0000000000" y="29.0000000000" xlink:href="#block"/><use x="245.0000000000" y="29.0000000000" xlink:href="#block"/><use x="263.0000000000" y="29.0000000000" xlink:href="#block"/><use x="272.0000000000" y="29.0000000000" xlink:href="#block"/><use x="281.0000000000" y="29.0000000000" xlink:href="#block"/><use x="299.0000000000" y="29.0000000000" xlink:href="#block"/><use x="11.0000000000" y="38.0000000000" xlink:href="#block"/><use x="29.0000000000" y="38.0000000000" xlink:href="#block"/><use x="38.0000000000" y="38.0000000000" xlink:href="#block"/><use x="47.0000000000" y="38.0000000000" xlink:href="#block"/><use x="65.0000000000" y="38.0000000000" xlink:href="#block"/><use x="83.0000000000" y="38.0000000000" xlink:href="#block"/><use x="92.0000000000" y="38.0000000000" xlink:href="#block"/><use x="101.0000000000" y="38.0000000000" xlink:href="#block"/><use x="119.0000000000" y="38.0000000000" xlink:href="#block"/><use x="128.0000000000" y="38.0000000000" xlink:href="#block"/><use x="146.0000000000" y="38.0000000000" xlink:href="#block"/><use x="155.0000000000" y="38.0000000000" xlink:href="#block"/><use x="191.0000000000" y="38.0000000000" xlink:href="#block"/><use x="245.0000000000" y="38.0000000000" xlink:href="#block"/><use x="263.0000000000" y="38.0000000000" xlink:href="#block"/><use x="272.0000000000" y="38.0000000000" xlink:href="#block"/><use x="281.0000000000" y="38.0000000000" xlink:href="#block"/><use x="299.0000000000" y="38.0000000000" xlink:href="#block"/><use x="11.0000000000" y="47.0000000000" xlink:href="#block"/><use x="29.0000000000" y="47.0000000000" xlink:href="#block"/><use x="38.0000000000" y="47.0000000000" xlink:href="#block"/><use x="47.0000000000" y="47.0000000000" xlink:href="#block"/><use x="65.0000000000" y="47.0000000000" xlink:href="#block"/><use x="92.0000000000" y="47.0000000000" xlink:href="#block"/><use x="137.0000000000" y="47.0000000000" xlink:href="#block"/><use x="155.0000000000" y="47.0000000000" xlink:href="#block"/><use x="173.0000000000" y="47.0000000000" xlink:href="#block"/><use x="191.0000000000" y="47.0000000000" xlink:href="#block"/><use x="200.0000000000" y="47.0000000000" xlink:href="#block"/><use x="245.0000000000" y="47.0000000000" xlink:href="#block"/><use x="263.0000000000" y="47.0000000000" xlink:href="#block"/><use x="272.0000000000" y="47.0000000000" xlink:href="#block"/><use x="281.0000000000" y="47.0000000000" xlink:href="#block"/><use x="299.0000000000" y="47.0000000000" xlink:href="#block"/><use x="11.0000000000" y="56.0000000000" xlink:href="#block"/><use x="65.0000000000" y="56.0000000000" xlink:href="#block"/><use x="83.0000000000" y="56.0000000000" xlink:href="#block"/><use x="92.0000000000" y="56.0000000000" xlink:href="#block"/><use x="110.0000000000" y="56.0000000000" xlink:href="#block"/><use x="119.0000000000" y="56.0000000000" xlink:href="#block"/><use x="128.0000000000" y="56.0000000000" xlink:href="#block"/><use x="137.0000000000" y="56.0000000000" xlink:href="#block"/><use x="146.0000000000" y="56.0000000000" xlink:href="#block"/><use x="155.0000000000" y="56.0000000000" xlink:href="#block"/><use x="164.0000000000" y="56.0000000000" xlink:href="#block"/><use x="173.0000000000" y="56.0000000000" xlink:href="#block"/><use x="209.0000000000" y="56.0000000000" xlink:href="#block"/><use x="227.0000000000" y="56.0000000000" xlink:href="#block"/><use x="245.0000000000" y="56.0000000000" xlink:href="#block"/><use x="299.0000000000" y="56.0000000000" xlink:href="#block"/><use x="11.0000000000" y="65.0000000000" xlink:href="#block"/><use x="20.0000000000" y="65.0000000000" xlink:href="#block"/><use x="29.0000000000" y="65.0000000000" xlink:href="#block"/><use x="38.0000000000" y="65.0000000000" xlink:href="#block"/><use x="47.0000000000" y="65.0000000000" xlink:href="#block"/><use x="56.0000000000" y="65.0000000000" xlink:href="#block"/><use x="65.0000000000" y="65.0000000000" xlink:href="#block"/><use x="83.0000000000" y="65.0000000000" xlink:href="#block"/><use x="101.0000000000" y="65.0000000000" xlink:href="#block"/><use x="119.0000000000" y="65.0000000000" xlink:href="#block"/><use x="137.0000000000" y="65.0000000000" xlink:href="#block"/><use x="155.0000000000" y="65.0000000000" xlink:href="#block"/><use x="173.0000000000" y="65.0000000000" xlink:href="#block"/><use x="191.0000000000" y="65.0000000000" xlink:href="#block"/><use x="209.0000000000" y="65.0000000000" xlink:href="#block"/><use x="227.0000000000" y="65.0000000000" xlink:href="#block"/><use x="245.0000000000" y="65.0000000000" xlink:href="#block"/><use x="254.0000000000" y="65.0000000000" xlink:href="#block"/><use x="263.0000000000" y="65.0000000000" xlink:href="#block"/><use x="272.0000000000" y="65.0000000000" xlink:href="#block"/><use x="281.0000000000" y="65.0000000000" xlink:href="#block"/><use x="290.0000000000" y="65.0000000000" xlink:href="#block"/><use x="299.0000000000" y="65.0000000000" xlink:href="#block"/><use x="92.0000000000" y="74.0000000000" xlink:href="#block"/><use x="101.0000000000" y="74.0000000000" xlink:href="#block"/><use x="110.0000000000" y="74.0000000000" xlink:href="#block"/><use x="182.0000000000" y="74.0000000000" xlink:href="#block"/><use x="191.0000000000" y="74.0000000000" xlink:href="#block"/><use x="200.0000000000" y="74.0000000000" xlink:href="#block"/><use x="218.0000000000" y="74.0000000000" xlink:href="#block"/><use x="11.0000000000" y="83.0000000000" xlink:href="#block"/><use x="20.0000000000" y="83.0000000000" xlink:href="#block"/><use x="29.0000000000" y="83.0000000000" xlink:href="#block"/><use x="38.0000000000" y="83.0000000000" xlink:href="#block"/><use x="47.0000000000" y="83.0000000000" xlink:href="#block"/><use x="65.0000000000" y="83.0000000000" xlink:href="#block"/><use x="74.0000000000" y="83.0000000000" xlink:href="#block"/><use x="83.0000000000" y="83.0000000000" xlink:href="#block"/><use x="92.0000000000" y="83.0000000000" xlink:href="#block"/><use x="110.0000000000" y="83.0000000000" xlink:href="#block"/><use x="128.0000000000" y="83.0000000000" xlink:href="#block"/><use x="146.0000000000" y="83.0000000000" xlink:href="#block"/><use x="164.0000000000" y="83.0000000000" xlink:href="#block"/><use x="173.0000000000" y="83.0000000000" xlink:href="#block"/><use x="191.0000000000" y="83.0000000000" xlink:href="#block"/><use x="200.0000000000" y="83.0000000000" xlink:href="#block"/><use x="236.0000000000" y="83.0000000000" xlink:href="#block"/><use x="254.0000000000" y="83.0000000000" xlink:href="#block"/><use x="272.0000000000" y="83.0000000000" xlink:href="#block"/><use x="290.0000000000" y="83.0000000000" xlink:href="#block"/><use x="20.0000000000" y="92.0000000000" xlink:href="#block"/><use x="47.0000000000" y="92.0000000000" xlink:href="#block"/><use x="56.0000000000" y="92.0000000000" xlink:href="#block"/><use x="74.0000000000" y="92.0000000000" xlink:href="#block"/><use x="101.0000000000" y="92.0000000000" xlink:href="#block"/><use x="119.0000000000" y="92.0000000000" xlink:href="#block"/><use x="137.0000000000" y="92.0000000000" xlink:href="#block"/><use x="191.0000000000" y="92.0000000000" xlink:href="#block"/><use x="200.0000000000" y="92.0000000000" xlink:href="#block"/><use x="209.0000000000" y="92.0000000000" xlink:href="#block"/><use x="236.0000000000" y="92.0000000000" xlink:href="#block"/><use x="245.0000000000" y="92.0000000000" xlink:href="#block"/><use x="263.0000000000" y="92.0000000000" xlink:href="#block"/><use x="272.0000000000" y="92.0000000000" xlink:href="#block"/><use x="281.0000000000" y="92.0000000000" xlink:href="#block"/><use x="11.0000000000" y="101.0000000000" xlink:href="#block"/><use x="29.0000000000" y="101.0000000000" xlink:href="#block"/><use x="38.0000000000" y="101.0000000000" xlink:href="#block"/><use x="56.0000000000" y="101.0000000000" xlink:href="#block"/><use x="65.0000000000" y="101.0000000000" xlink:href="#block"/><use x="74.0000000000" y="101.0000000000" xlink:href="#block"/><use x="83.0000000000" y="101.0000000000" xlink:href="#block"/><use x="101.0000000000" y="101.0000000000" xlink:href="#block"/><use x="128.0000000000" y="101.0000000000" xlink:href="#block"/><use x="146.0000000000" y="101.0000000000" xlink:href="#block"/><use x="155.0000000000" y="101.0000000000" xlink:href="#block"/><use x="164.0000000000" y="101.0000000000" xlink:href="#block"/><use x="173.0000000000" y="101.0000000000" xlink:href="#block"/><use x="182.0000000000" y="101.0000000000" xlink:href="#block"/><use x="209.0000000000" y="101.0000000000" xlink:href="#block"/><use x="227.0000000000" y="101.0000000000" xlink:href="#block"/><use x="236.0000000000" y="101.0000000000" xlink:href="#block"/><use x="254.0000000000" y="101.0000000000" xlink:href="#block"/><use x="263.0000000000" y="101.0000000000" xlink:href="#block"/><use x="272.0000000000" y="101.0000000000" xlink:href="#block"/><use x="290.0000000000" y="101.0000000000" xlink:href="#block"/><use x="11.0000000000" y="110.0000000000" xlink:href="#block"/><use x="29.0000000000" y="110.0000000000" xlink:href="#block"/><use x="74.0000000000" y="110.0000000000" xlink:href="#block"/><use x="83.0000000000" y="110.0000000000" xlink:href="#block"/><use x="119.0000000000" y="110.0000000000" xlink:href="#block"/><use x="128.0000000000" y="110.0000000000" xlink:href="#block"/><use x="137.0000000000" y="110.0000000000" xlink:href="#block"/><use x="164.0000000000" y="110.0000000000" xlink:href="#block"/><use x="173.0000000000" y="110.0000000000" xlink:href="#block"/><use x="182.0000000000" y="110.0000000000" xlink:href="#block"/><use x="200.0000000000" y="110.0000000000" xlink:href="#block"/><use x="218.0000000000" y="110.0000000000" xlink:href="#block"/><use x="236.0000000000" y="110.0000000000" xlink:href="#block"/><use x="245.0000000000" y="110.0000000000" xlink:href="#block"/><use x="281.0000000000" y="110.0000000000" xlink:href="#block"/><use x="290.0000000000" y="110.0000000000" xlink:href="#block"/><use x="299.0000000000" y="110.0000000000" xlink:href="#block"/><use x="29.0000000000" y="119.0000000000" xlink:href="#block"/><use x="65.0000000000" y="119.0000000000" xlink:href="#block"/><use x="74.0000000000" y="119.0000000000" xlink:href="#block"/><use x="83.0000000000" y="119.0000000000" xlink:href="#block"/><use x="92.0000000000" y="119.0000000000" xlink:href="#block"/><use x="101.0000000000" y="119.0000000000" xlink:href="#block"/><use x="119.0000000000" y="119.0000000000" xlink:href="#block"/><use x="146.0000000000" y="119.0000000000" xlink:href="#block"/><use x="155.0000000000" y="119.0000000000" xlink:href="#block"/><use x="191.0000000000" y="119.0000000000" xlink:href="#block"/><use x="227.0000000000" y="119.0000000000" xlink:href="#block"/><use x="254.0000000000" y="119.0000000000" xlink:href="#block"/><use x="281.0000000000" y="119.0000000000" xlink:href="#block"/><use x="290.0000000000" y="119.0000000000" xlink:href="#block"/><use x="20.0000000000" y="128.0000000000" xlink:href="#block"/><use x="47.0000000000" y="128.0000000000" xlink:href="#block"/><use x="74.0000000000" y="128.0000000000" xlink:href="#block"/><use x="83.0000000000" y="128.0000000000" xlink:href="#block"/><use x="137.0000000000" y="128.0000000000" xlink:href="#block"/><use x="146.0000000000" y="128.0000000000" xlink:href="#block"/><use x="155.0000000000" y="128.0000000000" xlink:href="#block"/><use x="191.0000000000" y="128.0000000000" xlink:href="#block"/><use x="200.0000000000" y="128.0000000000" xlink:href="#block"/><use x="209.0000000000" y="128.0000000000" xlink:href="#block"/><use x="218.0000000000" y="128.0000000000" xlink:href="#block"/><use x="236.0000000000" y="128.0000000000" xlink:href="#block"/><use x="245.0000000000" y="128.0000000000" xlink:href="#block"/><use x="254.0000000000" y="128.0000000000" xlink:href="#block"/><use x="263.0000000000" y="128.0000000000" xlink:href="#block"/><use x="281.0000000000" y="128.0000000000" xlink:href="#block"/><use x="38.0000000000" y="137.0000000000" xlink:href="#block"/><use x="56.0000000000" y="137.0000000000" xlink:href="#block"/><use x="65.0000000000" y="137.0000000000" xlink:href="#block"/><use x="101.0000000000" y="137.0000000000" xlink:href="#block"/><use x="110.0000000000" y="137.0000000000" xlink:href="#block"/><use x="119.0000000000" y="137.0000000000" xlink:href="#block"/><use x="128.0000000000" y="137.0000000000" xlink:href="#block"/><use x="137.0000000000" y="137.0000000000" xlink:href="#block"/><use x="164.0000000000" y="137.0000000000" xlink:href="#block"/><use x="173.0000000000" y="137.0000000000" xlink:href="#block"/><use x="191.0000000000" y="137.0000000000" xlink:href="#block"/><use x="209.0000000000" y="137.0000000000" xlink:href="#block"/><use x="227.0000000000" y="137.0000000000" xlink:href="#block"/><use x="236.0000000000" y="137.0000000000" xlink:href="#block"/><use x="254.0000000000" y="137.0000000000" xlink:href="#block"/><use x="263.0000000000" y="137.0000000000" xlink:href="#block"/><use x="272.0000000000" y="137.0000000000" xlink:href="#block"/><use x="290.0000000000" y="137.0000000000" xlink:href="#block"/><use x="11.0000000000" y="146.0000000000" xlink:href="#block"/><use x="29.0000000000" y="146.0000000000" xlink:href="#block"/><use x="38.0000000000" y="146.0000000000" xlink:href="#block"/><use x="47.0000000000" y="146.0000000000" xlink:href="#block"/><use x="56.0000000000" y="146.0000000000" xlink:href="#block"/><use x="74.0000000000" y="146.0000000000" xlink:href="#block"/><use x="92.0000000000" y="146.0000000000" xlink:href="#block"/><use x="101.0000000000" y="146.0000000000" xlink:href="#block"/><use x="110.0000000000" y="146.0000000000" xlink:href="#block"/><use x="182.0000000000" y="146.0000000000" xlink:href="#block"/><use x="218.0000000000" y="146.0000000000" xlink:href="#block"/><use x="236.0000000000" y="146.0000000000" xlink:href="#block"/><use x="245.0000000000" y="146.0000000000" xlink:href="#block"/><use x="290.0000000000" y="146.0000000000" xlink:href="#block"/><use x="299.0000000000" y="146.0000000000" xlink:href="#block"/><use x="20.0000000000" y="155.0000000000" xlink:href="#block"/><use x="47.0000000000" y="155.0000000000" xlink:href="#block"/><use x="65.0000000000" y="155.0000000000" xlink:href="#block"/><use x="74.0000000000" y="155.0000000000" xlink:href="#block"/><use x="83.0000000000" y="155.0000000000" xlink:href="#block"/><use x="92.0000000000" y="155.0000000000" xlink:href="#block"/><use x="110.0000000000" y="155.0000000000" xlink:href="#block"/><use x="146.0000000000" y="155.0000000000" xlink:href="#block"/><use x="236.0000000000" y="155.0000000000" xlink:href="#block"/><use x="254.0000000000" y="155.0000000000" xlink:href="#block"/><use x="290.0000000000" y="155.0000000000" xlink:href="#block"/><use x="11.0000000000" y="164.0000000000" xlink:href="#block"/><use x="20.0000000000" y="164.0000000000" xlink:href="#block"/><use x="56.0000000000" y="164.0000000000" xlink:href="#block"/><use x="74.0000000000" y="164.0000000000" xlink:href="#block"/><use x="83.0000000000" y="164.0000000000" xlink:href="#block"/><use x="92.0000000000" y="164.0000000000" xlink:href="#block"/><use x="119.0000000000" y="164.0000000000" xlink:href="#block"/><use x="137.0000000000" y="164.0000000000" xlink:href="#block"/><use x="155.0000000000" y="164.0000000000" xlink:href="#block"/><use x="173.0000000000" y="164.0000000000" xlink:href="#block"/><use x="191.0000000000" y="164.0000000000" xlink:href="#block"/><use x="200.0000000000" y="164.0000000000" xlink:href="#block"/><use x="209.0000000000" y="164.0000000000" xlink:href="#block"/><use x="218.0000000000" y="164.0000000000" xlink:href="#block"/><use x="263.0000000000" y="164.0000000000" xlink:href="#block"/><use x="281.0000000000" y="164.0000000000" xlink:href="#block"/><use x="11.0000000000" y="173.0000000000" xlink:href="#block"/><use x="38.0000000000" y="173.0000000000" xlink:href="#block"/><use x="56.0000000000" y="173.0000000000" xlink:href="#block"/><use x="65.0000000000" y="173.0000000000" xlink:href="#block"/><use x="74.0000000000" y="173.0000000000" xlink:href="#block"/><use x="92.0000000000" y="173.0000000000" xlink:href="#block"/><use x="101.0000000000" y="173.0000000000" xlink:href="#block"/><use x="128.0000000000" y="173.0000000000" xlink:href="#block"/><use x="146.0000000000" y="173.0000000000" xlink:href="#block"/><use x="155.0000000000" y="173.0000000000" xlink:href="#block"/><use x="164.0000000000" y="173.0000000000" xlink:href="#block"/><use x="191.0000000000" y="173.0000000000" xlink:href="#block"/><use x="218.0000000000" y="173.0000000000" xlink:href="#block"/><use x="227.0000000000" y="173.0000000000" xlink:href="#block"/><use x="254.0000000000" y="173.0000000000" xlink:href="#block"/><use x="263.0000000000" y="173.0000000000" xlink:href="#block"/><use x="299.0000000000" y="173.0000000000" xlink:href="#block"/><use x="11.0000000000" y="182.0000000000" xlink:href="#block"/><use x="20.0000000000" y="182.0000000000" xlink:href="#block"/><use x="29.0000000000" y="182.0000000000" xlink:href="#block"/><use x="56.0000000000" y="182.0000000000" xlink:href="#block"/><use x="74.0000000000" y="182.0000000000" xlink:href="#block"/><use x="83.0000000000" y="182.0000000000" xlink:href="#block"/><use x="101.0000000000" y="182.0000000000" xlink:href="#block"/><use x="119.0000000000" y="182.0000000000" xlink:href="#block"/><use x="137.0000000000" y="182.0000000000" xlink:href="#block"/><use x="173.0000000000" y="182.0000000000" xlink:href="#block"/><use x="182.0000000000" y="182.0000000000" xlink:href="#block"/><use x="218.0000000000" y="182.0000000000" xlink:href="#block"/><use x="227.0000000000" y="182.0000000000" xlink:href="#block"/><use x="236.0000000000" y="182.0000000000" xlink:href="#block"/><use x="245.0000000000" y="182.0000000000" xlink:href="#block"/><use x="272.0000000000" y="182.0000000000" xlink:href="#block"/><use x="299.0000000000" y="182.0000000000" xlink:href="#block"/><use x="38.0000000000" y="191.0000000000" xlink:href="#block"/><use x="47.0000000000" y="191.0000000000" xlink:href="#block"/><use x="56.0000000000" y="191.0000000000" xlink:href="#block"/><use x="65.0000000000" y="191.0000000000" xlink:href="#block"/><use x="119.0000000000" y="191.0000000000" xlink:href="#block"/><use x="146.0000000000" y="191.0000000000" xlink:href="#block"/><use x="164.0000000000" y="191.0000000000" xlink:href="#block"/><use x="173.0000000000" y="191.0000000000" xlink:href="#block"/><use x="191.0000000000" y="191.0000000000" xlink:href="#block"/><use x="209.0000000000" y="191.0000000000" xlink:href="#block"/><use x="227.0000000000" y="191.0000000000" xlink:href="#block"/><use x="245.0000000000" y="191.0000000000" xlink:href="#block"/><use x="272.0000000000" y="191.0000000000" xlink:href="#block"/><use x="290.0000000000" y="191.0000000000" xlink:href="#block"/><use x="11.0000000000" y="200.0000000000" xlink:href="#block"/><use x="29.0000000000" y="200.0000000000" xlink:href="#block"/><use x="74.0000000000" y="200.0000000000" xlink:href="#block"/><use x="92.0000000000" y="200.0000000000" xlink:href="#block"/><use x="101.0000000000" y="200.0000000000" xlink:href="#block"/><use x="137.0000000000" y="200.0000000000" xlink:href="#block"/><use x="146.0000000000" y="200.0000000000" xlink:href="#block"/><use x="155.0000000000" y="200.0000000000" xlink:href="#block"/><use x="173.0000000000" y="200.0000000000" xlink:href="#block"/><use x="191.0000000000" y="200.0000000000" xlink:href="#block"/><use x="200.0000000000" y="200.0000000000" xlink:href="#block"/><use x="209.0000000000" y="200.0000000000" xlink:href="#block"/><use x="227.0000000000" y="200.0000000000" xlink:href="#block"/><use x="245.0000000000" y="200.0000000000" xlink:href="#block"/><use x="254.0000000000" y="200.0000000000" xlink:href="#block"/><use x="281.0000000000" y="200.0000000000" xlink:href="#block"/><use x="290.0000000000" y="200.0000000000" xlink:href="#block"/><use x="299.0000000000" y="200.0000000000" xlink:href="#block"/><use x="11.0000000000" y="209.0000000000" xlink:href="#block"/><use x="56.0000000000" y="209.0000000000" xlink:href="#block"/><use x="65.0000000000" y="209.0000000000" xlink:href="#block"/><use x="92.0000000000" y="209.0000000000" xlink:href="#block"/><use x="101.0000000000" y="209.0000000000" xlink:href="#block"/><use x="110.0000000000" y="209.0000000000" xlink:href="#block"/><use x="119.0000000000" y="209.0000000000" xlink:href="#block"/><use x="128.0000000000" y="209.0000000000" xlink:href="#block"/><use x="137.0000000000" y="209.0000000000" xlink:href="#block"/><use x="146.0000000000" y="209.0000000000" xlink:href="#block"/><use x="155.0000000000" y="209.0000000000" xlink:href="#block"/><use x="164.0000000000" y="209.0000000000" xlink:href="#block"/><use x="173.0000000000" y="209.0000000000" xlink:href="#block"/><use x="254.0000000000" y="209.0000000000" xlink:href="#block"/><use x="263.0000000000" y="209.0000000000" xlink:href="#block"/><use x="11.0000000000" y="218.0000000000" xlink:href="#block"/><use x="29.0000000000" y="218.0000000000" xlink:href="#block"/><use x="38.0000000000" y="218.0000000000" xlink:href="#block"/><use x="47.0000000000" y="218.0000000000" xlink:href="#block"/><use x="83.0000000000" y="218.0000000000" xlink:href="#block"/><use x="110.0000000000" y="218.0000000000" xlink:href="#block"/><use x="182.0000000000" y="218.0000000000" xlink:href="#block"/><use x="191.0000000000" y="218.0000000000" xlink:href="#block"/><use x="209.0000000000" y="218.0000000000" xlink:href="#block"/><use x="218.0000000000" y="218.0000000000" xlink:href="#block"/><use x="227.0000000000" y="218.0000000000" xlink:href="#block"/><use x="236.0000000000" y="218.0000000000" xlink:href="#block"/><use x="245.0000000000" y="218.0000000000" xlink:href="#block"/><use x="272.0000000000" y="218.0000000000" xlink:href="#block"/><use x="11.0000000000" y="227.0000000000" xlink:href="#block"/><use x="29.0000000000" y="227.0000000000" xlink:href="#block"/><use x="65.0000000000" y="227.0000000000" xlink:href="#block"/><use x="83.0000000000" y="227.0000000000" xlink:href="#block"/><use x="92.0000000000" y="227.0000000000" xlink:href="#block"/><use x="110.0000000000" y="227.0000000000" xlink:href="#block"/><use x="119.0000000000" y="227.0000000000" xlink:href="#block"/><use x="128.0000000000" y="227.0000000000" xlink:href="#block"/><use x="146.0000000000" y="227.0000000000" xlink:href="#block"/><use x="155.0000000000" y="227.0000000000" xlink:href="#block"/><use x="173.0000000000" y="227.0000000000" xlink:href="#block"/><use x="200.0000000000" y="227.0000000000" xlink:href="#block"/><use x="227.0000000000" y="227.0000000000" xlink:href="#block"/><use x="236.0000000000" y="227.0000000000" xlink:href="#block"/><use x="245.0000000000" y="227.0000000000" xlink:href="#block"/><use x="254.0000000000" y="227.0000000000" xlink:href="#block"/><use x="263.0000000000" y="227.0000000000" xlink:href="#block"/><use x="272.0000000000" y="227.0000000000" xlink:href="#block"/><use x="290.0000000000" y="227.0000000000" xlink:href="#block"/><use x="83.0000000000" y="236.0000000000" xlink:href="#block"/><use x="92.0000000000" y="236.0000000000" xlink:href="#block"/><use x="119.0000000000" y="236.0000000000" xlink:href="#block"/><use x="146.0000000000" y="236.0000000000" xlink:href="#block"/><use x="182.0000000000" y="236.0000000000" xlink:href="#block"/><use x="191.0000000000" y="236.0000000000" xlink:href="#block"/><use x="200.0000000000" y="236.0000000000" xlink:href="#block"/><use x="209.0000000000" y="236.0000000000" xlink:href="#block"/><use x="227.0000000000" y="236.0000000000" xlink:href="#block"/><use x="263.0000000000" y="236.0000000000" xlink:href="#block"/><use x="272.0000000000" y="236.0000000000" xlink:href="#block"/><use x="281.0000000000" y="236.0000000000" xlink:href="#block"/><use x="11.0000000000" y="245.0000000000" xlink:href="#block"/><use x="20.0000000000" y="245.0000000000" xlink:href="#block"/><use x="29.0000000000" y="245.0000000000" xlink:href="#block"/><use x="38.0000000000" y="245.0000000000" xlink:href="#block"/><use x="47.0000000000" y="245.0000000000" xlink:href="#block"/><use x="56.0000000000" y="245.0000000000" xlink:href="#block"/><use x="65.0000000000" y="245.0000000000" xlink:href="#block"/><use x="83.0000000000" y="245.0000000000" xlink:href="#block"/><use x="119.0000000000" y="245.0000000000" xlink:href="#block"/><use x="128.0000000000" y="245.0000000000" xlink:href="#block"/><use x="146.0000000000" y="245.0000000000" xlink:href="#block"/><use x="155.0000000000" y="245.0000000000" xlink:href="#block"/><use x="164.0000000000" y="245.0000000000" xlink:href="#block"/><use x="191.0000000000" y="245.0000000000" xlink:href="#block"/><use x="209.0000000000" y="245.0000000000" xlink:href="#block"/><use x="227.0000000000" y="245.0000000000" xlink:href="#block"/><use x="245.0000000000" y="245.0000000000" xlink:href="#block"/><use x="263.0000000000" y="245.0000000000" xlink:href="#block"/><use x="290.0000000000" y="245.0000000000" xlink:href="#block"/><use x="11.0000000000" y="254.0000000000" xlink:href="#block"/><use x="65.0000000000" y="254.0000000000" xlink:href="#block"/><use x="101.0000000000" y="254.0000000000" xlink:href="#block"/><use x="119.0000000000" y="254.0000000000" xlink:href="#block"/><use x="137.0000000000" y="254.0000000000" xlink:href="#block"/><use x="173.0000000000" y="254.0000000000" xlink:href="#block"/><use x="182.0000000000" y="254.0000000000" xlink:href="#block"/><use x="200.0000000000" y="254.0000000000" xlink:href="#block"/><use x="227.0000000000" y="254.0000000000" xlink:href="#block"/><use x="263.0000000000" y="254.0000000000" xlink:href="#block"/><use x="272.0000000000" y="254.0000000000" xlink:href="#block"/><use x="299.0000000000" y="254.0000000000" xlink:href="#block"/><use x="11.0000000000" y="263.0000000000" xlink:href="#block"/><use x="29.0000000000" y="263.0000000000" xlink:href="#block"/><use x="38.0000000000" y="263.0000000000" xlink:href="#block"/><use x="47.0000000000" y="263.0000000000" xlink:href="#block"/><use x="65.0000000000" y="263.0000000000" xlink:href="#block"/><use x="83.0000000000" y="263.0000000000" xlink:href="#block"/><use x="101.0000000000" y="263.0000000000" xlink:href="#block"/><use x="137.0000000000" y="263.0000000000" xlink:href="#block"/><use x="146.0000000000" y="263.0000000000" xlink:href="#block"/><use x="155.0000000000" y="263.0000000000" xlink:href="#block"/><use x="209.0000000000" y="263.0000000000" xlink:href="#block"/><use x="227.0000000000" y="263.0000000000" xlink:href="#block"/><use x="236.0000000000" y="263.0000000000" xlink:href="#block"/><use x="245.0000000000" y="263.0000000000" xlink:href="#block"/><use x="254.0000000000" y="263.0000000000" xlink:href="#block"/><use x="263.0000000000" y="263.0000000000" xlink:href="#block"/><use x="281.0000000000" y="263.0000000000" xlink:href="#block"/><use x="299.0000000000" y="263.0000000000" xlink:href="#block"/><use x="11.0000000000" y="272.0000000000" xlink:href="#block"/><use x="29.0000000000" y="272.0000000000" xlink:href="#block"/><use x="38.0000000000" y="272.0000000000" xlink:href="#block"/><use x="47.0000000000" y="272.0000000000" xlink:href="#block"/><use x="65.0000000000" y="272.0000000000" xlink:href="#block"/><use x="83.0000000000" y="272.0000000000" xlink:href="#block"/><use x="119.0000000000" y="272.0000000000" xlink:href="#block"/><use x="146.0000000000" y="272.0000000000" xlink:href="#block"/><use x="173.0000000000" y="272.0000000000" xlink:href="#block"/><use x="200.0000000000" y="272.0000000000" xlink:href="#block"/><use x="218.0000000000" y="272.0000000000" xlink:href="#block"/><use x="245.0000000000" y="272.0000000000" xlink:href="#block"/><use x="263.0000000000" y="272.0000000000" xlink:href="#block"/><use x="272.0000000000" y="272.0000000000" xlink:href="#block"/><use x="281.0000000000" y="272.0000000000" xlink:href="#block"/><use x="290.0000000000" y="272.0000000000" xlink:href="#block"/><use x="11.0000000000" y="281.0000000000" xlink:href="#block"/><use x="29.0000000000" y="281.0000000000" xlink:href="#block"/><use x="38.0000000000" y="281.0000000000" xlink:href="#block"/><use x="47.0000000000" y="281.0000000000" xlink:href="#block"/><use x="65.0000000000" y="281.0000000000" xlink:href="#block"/><use x="83.0000000000" y="281.0000000000" xlink:href="#block"/><use x="92.0000000000" y="281.0000000000" xlink:href="#block"/><use x="128.0000000000" y="281.0000000000" xlink:href="#block"/><use x="146.0000000000" y="281.0000000000" xlink:href="#block"/><use x="164.0000000000" y="281.0000000000" xlink:href="#block"/><use x="173.0000000000" y="281.0000000000" xlink:href="#block"/><use x="182.0000000000" y="281.0000000000" xlink:href="#block"/><use x="191.0000000000" y="281.0000000000" xlink:href="#block"/><use x="209.0000000000" y="281.0000000000" xlink:href="#block"/><use x="227.0000000000" y="281.0000000000" xlink:href="#block"/><use x="254.0000000000" y="281.0000000000" xlink:href="#block"/><use x="11.0000000000" y="290.0000000000" xlink:href="#block"/><use x="65.0000000000" y="290.0000000000" xlink:href="#block"/><use x="83.0000000000" y="290.0000000000" xlink:href="#block"/><use x="110.0000000000" y="290.0000000000" xlink:href="#block"/><use x="119.0000000000" y="290.0000000000" xlink:href="#block"/><use x="128.0000000000" y="290.0000000000" xlink:href="#block"/><use x="137.0000000000" y="290.0000000000" xlink:href="#block"/><use x="155.0000000000" y="290.0000000000" xlink:href="#block"/><use x="164.0000000000" y="290.0000000000" xlink:href="#block"/><use x="173.0000000000" y="290.0000000000" xlink:href="#block"/><use x="182.0000000000" y="290.0000000000" xlink:href="#block"/><use x="200.0000000000" y="290.0000000000" xlink:href="#block"/><use x="227.0000000000" y="290.0000000000" xlink:href="#block"/><use x="254.0000000000" y="290.0000000000" xlink:href="#block"/><use x="263.0000000000" y="290.0000000000" xlink:href="#block"/><use x="272.0000000000" y="290.0000000000" xlink:href="#block"/><use x="290.0000000000" y="290.0000000000" xlink:href="#block"/><use x="299.0000000000" y="290.0000000000" xlink:href="#block"/><use x="11.0000000000" y="299.0000000000" xlink:href="#block"/><use x="20.0000000000" y="299.0000000000" xlink:href="#block"/><use x="29.0000000000" y="299.0000000000" xlink:href="#block"/><use x="38.0000000000" y="299.0000000000" xlink:href="#block"/><use x="47.0000000000" y="299.0000000000" xlink:href="#block"/><use x="56.0000000000" y="299.0000000000" xlink:href="#block"/><use x="65.0000000000" y="299.0000000000" xlink:href="#block"/><use x="83.0000000000" y="299.0000000000" xlink:href="#block"/><use x="101.0000000000" y="299.0000000000" xlink:href="#block"/><use x="146.0000000000" y="299.0000000000" xlink:href="#block"/><use x="155.0000000000" y="299.0000000000" xlink:href="#block"/><use x="200.0000000000" y="299.0000000000" xlink:href="#block"/><use x="209.0000000000" y="299.0000000000" xlink:href="#block"/><use x="227.0000000000" y="299.0000000000" xlink:href="#block"/><use x="236.0000000000" y="299.0000000000" xlink:href="#block"/><use x="245.0000000000" y="299.0000000000" xlink:href="#block"/><use x="272.0000000000" y="299.0000000000" xlink:href="#block"/><use x="290.0000000000" y="299.0000000000" xlink:href="#block"/></svg>
